<?xml version="1.0" encoding="UTF-8" standalone="no"?>
<!DOCTYPE svg PUBLIC "-//W3C//DTD SVG 1.1//EN"
 "http://www.w3.org/Graphics/SVG/1.1/DTD/svg11.dtd">
<!-- Generated by graphviz version 2.50.0 (0)
 -->
<!-- Title: pastafarianism Pages: 1 -->
<svg width="201pt" height="208pt"
 viewBox="0.00 0.00 201.48 208.00" xmlns="http://www.w3.org/2000/svg" xmlns:xlink="http://www.w3.org/1999/xlink">
<g id="graph0" class="graph" transform="scale(1 1) rotate(0) translate(4 204)">
<title>pastafarianism</title>
<polygon fill="white" stroke="transparent" points="-4,4 -4,-204 197.48,-204 197.48,4 -4,4"/>
<!-- parallel -->
<g id="node1" class="node">
<title>parallel</title>
<polygon fill="gold" stroke="black" points="172.35,-200 103.02,-200 85.18,-144 154.52,-144 172.35,-200"/>
<text text-anchor="middle" x="128.77" y="-174.8" font-family="Times New Roman,serif" font-size="9.00">parallel</text>
<text text-anchor="middle" x="128.77" y="-164.8" font-family="Times New Roman,serif" font-size="9.00">type</text>
</g>
<!-- sequence -->
<g id="node2" class="node">
<title>sequence</title>
<polygon fill="orange" stroke="black" points="119.77,-108 65.77,-108 65.77,-72 119.77,-72 119.77,-108"/>
<text text-anchor="middle" x="92.77" y="-87.8" font-family="Times New Roman,serif" font-size="9.00">sequence</text>
</g>
<!-- parallel&#45;&gt;sequence -->
<g id="edge1" class="edge">
<title>parallel&#45;&gt;sequence</title>
<path fill="none" stroke="black" d="M116.58,-143.92C112.77,-135.44 108.56,-126.11 104.77,-117.67"/>
<polygon fill="black" stroke="black" points="107.83,-115.96 100.54,-108.27 101.45,-118.83 107.83,-115.96"/>
</g>
<!-- scanning -->
<g id="node5" class="node">
<title>scanning</title>
<ellipse fill="gray" stroke="black" cx="165.77" cy="-90" rx="27.93" ry="18"/>
<text text-anchor="middle" x="165.77" y="-87.8" font-family="Times New Roman,serif" font-size="9.00">scanning</text>
</g>
<!-- parallel&#45;&gt;scanning -->
<g id="edge4" class="edge">
<title>parallel&#45;&gt;scanning</title>
<path fill="none" stroke="black" d="M141.29,-143.92C145.37,-135.09 149.89,-125.32 153.92,-116.61"/>
<polygon fill="black" stroke="black" points="157.2,-117.87 158.22,-107.32 150.84,-114.93 157.2,-117.87"/>
</g>
<!-- obstacle_detection -->
<g id="node3" class="node">
<title>obstacle_detection</title>
<ellipse fill="gray" stroke="black" cx="46.77" cy="-18" rx="46.53" ry="18"/>
<text text-anchor="middle" x="46.77" y="-15.8" font-family="Times New Roman,serif" font-size="9.00">obstacle_detection</text>
</g>
<!-- sequence&#45;&gt;obstacle_detection -->
<g id="edge2" class="edge">
<title>sequence&#45;&gt;obstacle_detection</title>
<path fill="none" stroke="black" d="M81.39,-71.7C75.91,-63.35 69.23,-53.18 63.2,-44.02"/>
<polygon fill="black" stroke="black" points="66.11,-42.06 57.69,-35.62 60.26,-45.9 66.11,-42.06"/>
</g>
<!-- bypass -->
<g id="node4" class="node">
<title>bypass</title>
<ellipse fill="gray" stroke="black" cx="138.77" cy="-18" rx="27" ry="18"/>
<text text-anchor="middle" x="138.77" y="-15.8" font-family="Times New Roman,serif" font-size="9.00">bypass</text>
</g>
<!-- sequence&#45;&gt;bypass -->
<g id="edge3" class="edge">
<title>sequence&#45;&gt;bypass</title>
<path fill="none" stroke="black" d="M104.14,-71.7C109.78,-63.11 116.7,-52.58 122.86,-43.21"/>
<polygon fill="black" stroke="black" points="125.9,-44.95 128.47,-34.67 120.05,-41.11 125.9,-44.95"/>
</g>
</g>
</svg>
