<?xml version="1.0" encoding="UTF-8" standalone="no"?>
<!DOCTYPE svg PUBLIC "-//W3C//DTD SVG 1.1//EN"
 "http://www.w3.org/Graphics/SVG/1.1/DTD/svg11.dtd">
<!-- Generated by graphviz version 2.50.0 (0)
 -->
<!-- Title: pastafarianism Pages: 1 -->
<svg width="158pt" height="116pt"
 viewBox="0.00 0.00 157.82 116.00" xmlns="http://www.w3.org/2000/svg" xmlns:xlink="http://www.w3.org/1999/xlink">
<g id="graph0" class="graph" transform="scale(1 1) rotate(0) translate(4 112)">
<title>pastafarianism</title>
<polygon fill="white" stroke="transparent" points="-4,4 -4,-112 153.82,-112 153.82,4 -4,4"/>
<!-- sequence -->
<g id="node1" class="node">
<title>sequence</title>
<polygon fill="orange" stroke="black" points="100.75,-108 46.75,-108 46.75,-72 100.75,-72 100.75,-108"/>
<text text-anchor="middle" x="73.75" y="-87.8" font-family="Times New Roman,serif" font-size="9.00">sequence</text>
</g>
<!-- part_status -->
<g id="node2" class="node">
<title>part_status</title>
<ellipse fill="gray" stroke="black" cx="31.75" cy="-18" rx="31.51" ry="18"/>
<text text-anchor="middle" x="31.75" y="-15.8" font-family="Times New Roman,serif" font-size="9.00">part_status</text>
</g>
<!-- sequence&#45;&gt;part_status -->
<g id="edge1" class="edge">
<title>sequence&#45;&gt;part_status</title>
<path fill="none" stroke="black" d="M63.37,-71.7C58.34,-63.32 52.21,-53.1 46.69,-43.9"/>
<polygon fill="black" stroke="black" points="49.59,-41.92 41.44,-35.14 43.58,-45.52 49.59,-41.92"/>
</g>
<!-- envs_safety -->
<g id="node3" class="node">
<title>envs_safety</title>
<ellipse fill="gray" stroke="black" cx="115.75" cy="-18" rx="34.13" ry="18"/>
<text text-anchor="middle" x="115.75" y="-15.8" font-family="Times New Roman,serif" font-size="9.00">envs_safety</text>
</g>
<!-- sequence&#45;&gt;envs_safety -->
<g id="edge2" class="edge">
<title>sequence&#45;&gt;envs_safety</title>
<path fill="none" stroke="black" d="M84.14,-71.7C89.09,-63.44 95.12,-53.39 100.57,-44.3"/>
<polygon fill="black" stroke="black" points="103.64,-46 105.78,-35.62 97.63,-42.4 103.64,-46"/>
</g>
</g>
</svg>
