<?xml version="1.0" encoding="UTF-8" standalone="no"?>
<!DOCTYPE svg PUBLIC "-//W3C//DTD SVG 1.1//EN"
 "http://www.w3.org/Graphics/SVG/1.1/DTD/svg11.dtd">
<!-- Generated by graphviz version 2.50.0 (0)
 -->
<!-- Title: pastafarianism Pages: 1 -->
<svg width="201pt" height="280pt"
 viewBox="0.00 0.00 201.48 280.00" xmlns="http://www.w3.org/2000/svg" xmlns:xlink="http://www.w3.org/1999/xlink">
<g id="graph0" class="graph" transform="scale(1 1) rotate(0) translate(4 276)">
<title>pastafarianism</title>
<polygon fill="white" stroke="transparent" points="-4,4 -4,-276 197.48,-276 197.48,4 -4,4"/>
<!-- sequence -->
<g id="node1" class="node">
<title>sequence</title>
<polygon fill="orange" stroke="black" points="111.77,-272 57.77,-272 57.77,-236 111.77,-236 111.77,-272"/>
<text text-anchor="middle" x="84.77" y="-251.8" font-family="Times New Roman,serif" font-size="9.00">sequence</text>
</g>
<!-- grab -->
<g id="node2" class="node">
<title>grab</title>
<ellipse fill="gray" stroke="black" cx="40.77" cy="-172" rx="27" ry="18"/>
<text text-anchor="middle" x="40.77" y="-169.8" font-family="Times New Roman,serif" font-size="9.00">grab</text>
</g>
<!-- sequence&#45;&gt;grab -->
<g id="edge1" class="edge">
<title>sequence&#45;&gt;grab</title>
<path fill="none" stroke="black" d="M75.22,-235.64C69.18,-224.66 61.26,-210.27 54.55,-198.06"/>
<polygon fill="black" stroke="black" points="57.58,-196.31 49.69,-189.23 51.45,-199.68 57.58,-196.31"/>
</g>
<!-- parallel -->
<g id="node3" class="node">
<title>parallel</title>
<polygon fill="gold" stroke="black" points="173.35,-200 104.02,-200 86.18,-144 155.52,-144 173.35,-200"/>
<text text-anchor="middle" x="129.77" y="-174.8" font-family="Times New Roman,serif" font-size="9.00">parallel</text>
<text text-anchor="middle" x="129.77" y="-164.8" font-family="Times New Roman,serif" font-size="9.00">type</text>
</g>
<!-- sequence&#45;&gt;parallel -->
<g id="edge2" class="edge">
<title>sequence&#45;&gt;parallel</title>
<path fill="none" stroke="black" d="M94.53,-235.64C98.96,-227.77 104.36,-218.16 109.6,-208.85"/>
<polygon fill="black" stroke="black" points="112.68,-210.51 114.53,-200.08 106.58,-207.08 112.68,-210.51"/>
</g>
<!-- sequence* -->
<g id="node4" class="node">
<title>sequence*</title>
<polygon fill="orange" stroke="black" points="119.77,-108 65.77,-108 65.77,-72 119.77,-72 119.77,-108"/>
<text text-anchor="middle" x="92.77" y="-87.8" font-family="Times New Roman,serif" font-size="9.00">sequence*</text>
</g>
<!-- parallel&#45;&gt;sequence* -->
<g id="edge3" class="edge">
<title>parallel&#45;&gt;sequence*</title>
<path fill="none" stroke="black" d="M117.24,-143.92C113.28,-135.35 108.91,-125.91 104.97,-117.39"/>
<polygon fill="black" stroke="black" points="108.13,-115.88 100.75,-108.27 101.78,-118.82 108.13,-115.88"/>
</g>
<!-- scanning -->
<g id="node7" class="node">
<title>scanning</title>
<ellipse fill="gray" stroke="black" cx="165.77" cy="-90" rx="27.93" ry="18"/>
<text text-anchor="middle" x="165.77" y="-87.8" font-family="Times New Roman,serif" font-size="9.00">scanning</text>
</g>
<!-- parallel&#45;&gt;scanning -->
<g id="edge6" class="edge">
<title>parallel&#45;&gt;scanning</title>
<path fill="none" stroke="black" d="M141.95,-143.92C145.87,-135.22 150.19,-125.61 154.07,-117"/>
<polygon fill="black" stroke="black" points="157.3,-118.35 158.21,-107.79 150.91,-115.48 157.3,-118.35"/>
</g>
<!-- obstacle_detection -->
<g id="node5" class="node">
<title>obstacle_detection</title>
<ellipse fill="gray" stroke="black" cx="46.77" cy="-18" rx="46.53" ry="18"/>
<text text-anchor="middle" x="46.77" y="-15.8" font-family="Times New Roman,serif" font-size="9.00">obstacle_detection</text>
</g>
<!-- sequence*&#45;&gt;obstacle_detection -->
<g id="edge4" class="edge">
<title>sequence*&#45;&gt;obstacle_detection</title>
<path fill="none" stroke="black" d="M81.39,-71.7C75.91,-63.35 69.23,-53.18 63.2,-44.02"/>
<polygon fill="black" stroke="black" points="66.11,-42.06 57.69,-35.62 60.26,-45.9 66.11,-42.06"/>
</g>
<!-- bypass -->
<g id="node6" class="node">
<title>bypass</title>
<ellipse fill="gray" stroke="black" cx="138.77" cy="-18" rx="27" ry="18"/>
<text text-anchor="middle" x="138.77" y="-15.8" font-family="Times New Roman,serif" font-size="9.00">bypass</text>
</g>
<!-- sequence*&#45;&gt;bypass -->
<g id="edge5" class="edge">
<title>sequence*&#45;&gt;bypass</title>
<path fill="none" stroke="black" d="M104.14,-71.7C109.78,-63.11 116.7,-52.58 122.86,-43.21"/>
<polygon fill="black" stroke="black" points="125.9,-44.95 128.47,-34.67 120.05,-41.11 125.9,-44.95"/>
</g>
</g>
</svg>
