<?xml version="1.0" encoding="UTF-8" standalone="no"?>
<!DOCTYPE svg PUBLIC "-//W3C//DTD SVG 1.1//EN"
 "http://www.w3.org/Graphics/SVG/1.1/DTD/svg11.dtd">
<!-- Generated by graphviz version 2.50.0 (0)
 -->
<!-- Title: pastafarianism Pages: 1 -->
<svg width="156pt" height="116pt"
 viewBox="0.00 0.00 155.66 116.00" xmlns="http://www.w3.org/2000/svg" xmlns:xlink="http://www.w3.org/1999/xlink">
<g id="graph0" class="graph" transform="scale(1 1) rotate(0) translate(4 112)">
<title>pastafarianism</title>
<polygon fill="white" stroke="transparent" points="-4,4 -4,-112 151.66,-112 151.66,4 -4,4"/>
<!-- selector -->
<g id="node1" class="node">
<title>selector</title>
<polygon fill="cyan" stroke="black" points="106.02,-82.54 106.02,-97.46 89.92,-108 67.14,-108 51.03,-97.46 51.03,-82.54 67.14,-72 89.92,-72 106.02,-82.54"/>
<text text-anchor="middle" x="78.53" y="-87.8" font-family="Times New Roman,serif" font-size="9.00">selector</text>
</g>
<!-- battery_check -->
<g id="node2" class="node">
<title>battery_check</title>
<ellipse fill="gray" stroke="black" cx="37.53" cy="-18" rx="37.56" ry="18"/>
<text text-anchor="middle" x="37.53" y="-15.8" font-family="Times New Roman,serif" font-size="9.00">battery_check</text>
</g>
<!-- selector&#45;&gt;battery_check -->
<g id="edge1" class="edge">
<title>selector&#45;&gt;battery_check</title>
<path fill="none" stroke="black" d="M68.39,-71.7C63.56,-63.44 57.67,-53.39 52.35,-44.3"/>
<polygon fill="black" stroke="black" points="55.34,-42.48 47.26,-35.62 49.3,-46.02 55.34,-42.48"/>
</g>
<!-- charging -->
<g id="node3" class="node">
<title>charging</title>
<ellipse fill="gray" stroke="black" cx="120.53" cy="-18" rx="27.27" ry="18"/>
<text text-anchor="middle" x="120.53" y="-15.8" font-family="Times New Roman,serif" font-size="9.00">charging</text>
</g>
<!-- selector&#45;&gt;charging -->
<g id="edge2" class="edge">
<title>selector&#45;&gt;charging</title>
<path fill="none" stroke="black" d="M88.91,-71.7C93.94,-63.32 100.07,-53.1 105.59,-43.9"/>
<polygon fill="black" stroke="black" points="108.7,-45.52 110.84,-35.14 102.69,-41.92 108.7,-45.52"/>
</g>
</g>
</svg>
