<?xml version="1.0" encoding="UTF-8" standalone="no"?>
<!DOCTYPE svg PUBLIC "-//W3C//DTD SVG 1.1//EN"
 "http://www.w3.org/Graphics/SVG/1.1/DTD/svg11.dtd">
<!-- Generated by graphviz version 2.50.0 (0)
 -->
<!-- Title: pastafarianism Pages: 1 -->
<svg width="174pt" height="116pt"
 viewBox="0.00 0.00 173.77 116.00" xmlns="http://www.w3.org/2000/svg" xmlns:xlink="http://www.w3.org/1999/xlink">
<g id="graph0" class="graph" transform="scale(1 1) rotate(0) translate(4 112)">
<title>pastafarianism</title>
<polygon fill="white" stroke="transparent" points="-4,4 -4,-112 169.77,-112 169.77,4 -4,4"/>
<!-- sequence -->
<g id="node1" class="node">
<title>sequence</title>
<polygon fill="orange" stroke="black" points="119.77,-108 65.77,-108 65.77,-72 119.77,-72 119.77,-108"/>
<text text-anchor="middle" x="92.77" y="-87.8" font-family="Times New Roman,serif" font-size="9.00">sequence</text>
</g>
<!-- obstacle_detection -->
<g id="node2" class="node">
<title>obstacle_detection</title>
<ellipse fill="gray" stroke="black" cx="46.77" cy="-18" rx="46.53" ry="18"/>
<text text-anchor="middle" x="46.77" y="-15.8" font-family="Times New Roman,serif" font-size="9.00">obstacle_detection</text>
</g>
<!-- sequence&#45;&gt;obstacle_detection -->
<g id="edge1" class="edge">
<title>sequence&#45;&gt;obstacle_detection</title>
<path fill="none" stroke="black" d="M81.39,-71.7C75.91,-63.35 69.23,-53.18 63.2,-44.02"/>
<polygon fill="black" stroke="black" points="66.11,-42.06 57.69,-35.62 60.26,-45.9 66.11,-42.06"/>
</g>
<!-- bypass -->
<g id="node3" class="node">
<title>bypass</title>
<ellipse fill="gray" stroke="black" cx="138.77" cy="-18" rx="27" ry="18"/>
<text text-anchor="middle" x="138.77" y="-15.8" font-family="Times New Roman,serif" font-size="9.00">bypass</text>
</g>
<!-- sequence&#45;&gt;bypass -->
<g id="edge2" class="edge">
<title>sequence&#45;&gt;bypass</title>
<path fill="none" stroke="black" d="M104.14,-71.7C109.78,-63.11 116.7,-52.58 122.86,-43.21"/>
<polygon fill="black" stroke="black" points="125.9,-44.95 128.47,-34.67 120.05,-41.11 125.9,-44.95"/>
</g>
</g>
</svg>
