<?xml version="1.0" encoding="UTF-8" standalone="no"?>
<!DOCTYPE svg PUBLIC "-//W3C//DTD SVG 1.1//EN"
 "http://www.w3.org/Graphics/SVG/1.1/DTD/svg11.dtd">
<!-- Generated by graphviz version 2.50.0 (0)
 -->
<!-- Title: pastafarianism Pages: 1 -->
<svg width="340pt" height="188pt"
 viewBox="0.00 0.00 339.90 188.00" xmlns="http://www.w3.org/2000/svg" xmlns:xlink="http://www.w3.org/1999/xlink">
<g id="graph0" class="graph" transform="scale(1 1) rotate(0) translate(4 184)">
<title>pastafarianism</title>
<polygon fill="white" stroke="transparent" points="-4,4 -4,-184 335.9,-184 335.9,4 -4,4"/>
<!-- sequence -->
<g id="node1" class="node">
<title>sequence</title>
<polygon fill="orange" stroke="black" points="206.77,-180 152.77,-180 152.77,-144 206.77,-144 206.77,-180"/>
<text text-anchor="middle" x="179.77" y="-159.8" font-family="Times New Roman,serif" font-size="9.00">sequence</text>
</g>
<!-- sequence* -->
<g id="node2" class="node">
<title>sequence*</title>
<polygon fill="orange" stroke="black" points="165.77,-108 111.77,-108 111.77,-72 165.77,-72 165.77,-108"/>
<text text-anchor="middle" x="138.77" y="-87.8" font-family="Times New Roman,serif" font-size="9.00">sequence*</text>
</g>
<!-- sequence&#45;&gt;sequence* -->
<g id="edge1" class="edge">
<title>sequence&#45;&gt;sequence*</title>
<path fill="none" stroke="black" d="M169.63,-143.7C164.91,-135.64 159.2,-125.89 153.98,-116.98"/>
<polygon fill="black" stroke="black" points="156.86,-114.96 148.78,-108.1 150.82,-118.5 156.86,-114.96"/>
</g>
<!-- selector -->
<g id="node5" class="node">
<title>selector</title>
<polygon fill="cyan" stroke="black" points="249.26,-82.54 249.26,-97.46 233.15,-108 210.38,-108 194.27,-97.46 194.27,-82.54 210.38,-72 233.15,-72 249.26,-82.54"/>
<text text-anchor="middle" x="221.77" y="-87.8" font-family="Times New Roman,serif" font-size="9.00">selector</text>
</g>
<!-- sequence&#45;&gt;selector -->
<g id="edge4" class="edge">
<title>sequence&#45;&gt;selector</title>
<path fill="none" stroke="black" d="M190.15,-143.7C195.03,-135.56 200.95,-125.69 206.34,-116.7"/>
<polygon fill="black" stroke="black" points="209.36,-118.48 211.5,-108.1 203.36,-114.88 209.36,-118.48"/>
</g>
<!-- obstacle_detection -->
<g id="node3" class="node">
<title>obstacle_detection</title>
<ellipse fill="gray" stroke="black" cx="46.77" cy="-18" rx="46.53" ry="18"/>
<text text-anchor="middle" x="46.77" y="-15.8" font-family="Times New Roman,serif" font-size="9.00">obstacle_detection</text>
</g>
<!-- sequence*&#45;&gt;obstacle_detection -->
<g id="edge2" class="edge">
<title>sequence*&#45;&gt;obstacle_detection</title>
<path fill="none" stroke="black" d="M116.02,-71.7C103.71,-62.33 88.39,-50.67 75.29,-40.7"/>
<polygon fill="black" stroke="black" points="77.13,-37.71 67.05,-34.44 72.89,-43.28 77.13,-37.71"/>
</g>
<!-- bypass -->
<g id="node4" class="node">
<title>bypass</title>
<ellipse fill="gray" stroke="black" cx="138.77" cy="-18" rx="27" ry="18"/>
<text text-anchor="middle" x="138.77" y="-15.8" font-family="Times New Roman,serif" font-size="9.00">bypass</text>
</g>
<!-- sequence*&#45;&gt;bypass -->
<g id="edge3" class="edge">
<title>sequence*&#45;&gt;bypass</title>
<path fill="none" stroke="black" d="M138.77,-71.7C138.77,-63.98 138.77,-54.71 138.77,-46.11"/>
<polygon fill="black" stroke="black" points="142.27,-46.1 138.77,-36.1 135.27,-46.1 142.27,-46.1"/>
</g>
<!-- battery_check -->
<g id="node6" class="node">
<title>battery_check</title>
<ellipse fill="gray" stroke="black" cx="221.77" cy="-18" rx="37.56" ry="18"/>
<text text-anchor="middle" x="221.77" y="-15.8" font-family="Times New Roman,serif" font-size="9.00">battery_check</text>
</g>
<!-- selector&#45;&gt;battery_check -->
<g id="edge5" class="edge">
<title>selector&#45;&gt;battery_check</title>
<path fill="none" stroke="black" d="M221.77,-71.7C221.77,-63.98 221.77,-54.71 221.77,-46.11"/>
<polygon fill="black" stroke="black" points="225.27,-46.1 221.77,-36.1 218.27,-46.1 225.27,-46.1"/>
</g>
<!-- charging -->
<g id="node7" class="node">
<title>charging</title>
<ellipse fill="gray" stroke="black" cx="304.77" cy="-18" rx="27.27" ry="18"/>
<text text-anchor="middle" x="304.77" y="-15.8" font-family="Times New Roman,serif" font-size="9.00">charging</text>
</g>
<!-- selector&#45;&gt;charging -->
<g id="edge6" class="edge">
<title>selector&#45;&gt;charging</title>
<path fill="none" stroke="black" d="M238.16,-75.17C250.41,-64.85 267.32,-50.58 281.04,-39.01"/>
<polygon fill="black" stroke="black" points="283.3,-41.69 288.68,-32.56 278.78,-36.33 283.3,-41.69"/>
</g>
</g>
</svg>
